<?xml version="1.0" encoding="UTF-8"?>
<!DOCTYPE svg PUBLIC "-//W3C//DTD SVG 1.1//EN" "http://www.w3.org/Graphics/SVG/1.1/DTD/svg11.dtd">
<!-- Creator: CorelDRAW -->
<svg xmlns="http://www.w3.org/2000/svg" xml:space="preserve" width="450px" height="600px" style="shape-rendering:geometricPrecision; text-rendering:geometricPrecision; image-rendering:optimizeQuality; fill-rule:evenodd; clip-rule:evenodd"
viewBox="0 0 450 600">
 <defs>
  <style type="text/css">
   <![CDATA[
    .str0 {stroke:#1F1A17;stroke-width:0.9}
    .fil3 {fill:#0093DD}
    .fil0 {fill:#1F1A17}
    .fil2 {fill:#28166F}
    .fil1 {fill:#E77817}
   ]]>
  </style>
 </defs>
 <g id="Capa_x0020_1">
  <metadata id="CorelCorpID_0Corel-Layer"/>
  <path class="fil0 str0" d="M138.012 217.38l3.65551 -0.683858c0,0 2.26772,20.126 2.83465,34.2992 0.566929,14.1732 0.850394,67.4646 0.283465,80.5039 -0.566929,13.0394 -2.26772,23.5276 -3.68504,33.4488 -1.41732,9.92126 -5.43307,20.9764 -9.51969,29.0551 -4.08661,8.07874 -8.62205,13.4646 -14.0079,14.0315 -5.38583,0.566929 -14.7425,0.848031 -22.1102,-4.25197 -2.67165,-1.84843 -4.51654,-3.85866 -6.5315,-5.55354 0.907087,0.675591 2.40709,1.14921 3.42047,1.85079 7.36772,5.09882 15.763,5.30197 21.1488,4.73504 5.38583,-0.566929 9.92126,-5.95276 14.0079,-14.0315 4.08661,-8.07874 8.10236,-19.1339 9.51969,-29.0551 1.41732,-9.92126 3.11811,-20.4094 3.68504,-33.4488 0.566929,-13.0394 0.283465,-66.3307 -0.283465,-80.5039 -0.413386,-10.3406 -1.73504,-23.8465 -2.41772,-30.3957zm-61.5945 120.176l2.60433 -0.670866c0,0 3.11811,8.22047 5.38583,14.4567 2.26772,6.23622 7.93701,22.1102 9.92126,26.6457 1.18346,2.70591 3.27402,6.92362 5.73189,9.88701 -4.09843,-1.36772 -8.00197,-8.98819 -9.80433,-13.1067 -1.98425,-4.53543 -7.65354,-20.4094 -9.92126,-26.6457 -1.27205,-3.49724 -2.81102,-7.62047 -3.91772,-10.5661zm36.2823 -103.427l-20.3551 6.94488 -1.08071 -4.24016 21.1028 -7.2 0.333071 4.49528z"/>
  <g id="_141925664">
   <polygon id="_140097744" class="fil1" points="276.706,175.172 319.241,175.444 314.97,186.656 277.204,189.579 "/>
   <path id="_142671312" class="fil1" d="M261.978 175.496l-37.0146 -0.214961 -5.37402 -59.1142c0,0 -0.644882,0 6.23386,0.859843 6.87874,0.859843 8.81339,2.57953 8.81339,2.57953l3.22441 -10.3181c0,0 -2.38819,-1.14803 -8.05039,-3.19961 -5.6622,-2.05157 -10.2685,-3.2315 -10.2685,-3.2315l-0.800787 -24.6508 -6.13465 -0.120472 -5.31496 27.1063c0,0 -6.02362,0.531496 -8.6811,0.885827 -2.65748,0.354331 -8.32677,1.24016 -8.32677,1.24016l-0.177165 5.49213 18.6024 1.06299 -4.42913 61.2992 -7.79409 0.425197 7.51181 18.6461 57.887 -4.28268 0.0933071 -14.465z"/>
   <polygon id="_141023768" class="fil1" points="179.382,175.103 185.302,175.084 192.783,195.052 179.041,195.423 "/>
   <polygon id="_140404416" class="fil1" points="163.224,175.317 112.429,175.215 117.729,199.887 162.4,196.611 "/>
  </g>
  <g id="_140416800">
   <polygon id="_140539360" class="fil2" points="285.209,201.57 302.979,407.277 323.03,423.911 380.29,261.436 362.396,251.177 323.269,365.696 314.441,221.354 "/>
   <polygon id="_139937160" class="fil2" points="262.209,139.424 259.721,527.643 288.278,510.707 274.397,108.178 266.923,106.577 215.673,223.225 170.295,110.581 165.49,116.72 152.411,454.919 174.299,477.875 179.637,159.963 215.139,254.722 "/>
   <path id="_140472264" class="fil2" d="M84.587 223.397l53.0079 -9.92126c0,0 2.26772,20.126 2.83465,34.2992 0.566929,14.1732 0.850394,67.4646 0.283465,80.5039 -0.566929,13.0394 -2.26772,23.5276 -3.68504,33.4488 -1.41732,9.92126 -5.43307,20.9764 -9.51969,29.0551 -4.08661,8.07874 -8.62205,13.4646 -14.0079,14.0315 -5.38583,0.566929 -14.7402,0.850394 -22.1102,-4.25197 -7.37008,-5.10236 -11.622,-9.35433 -16.1575,-14.1732 -4.53543,-4.8189 -10.7717,-13.6063 -13.8898,-18.9921 -3.11811,-5.38583 -13.8898,-26.6457 -13.8898,-26.6457l27.4961 -7.08661c0,0 3.11811,8.22047 5.38583,14.4567 2.26772,6.23622 7.93701,22.1102 9.92126,26.6457 1.98425,4.53543 6.51969,13.3228 11.0551,13.3228 4.53543,0 5.66929,-2.55118 6.51969,-4.53543 0.850394,-1.98425 3.3248,-8.50748 5.17559,-19.1811 1.85079,-10.6736 2.76142,-28.4409 3.04488,-40.3465 0.283465,-11.9055 -0.566929,-45.3543 -1.13386,-56.6929 -0.566929,-11.3386 -2.55118,-37.7008 -2.55118,-37.7008l-24.0945 8.22047 -3.68504 -14.4567z"/>
  </g>
  <g id="_140105392">
   <polygon id="_139994656" class="fil3" points="111.034,63.7783 117.299,78.15 100.348,91.4161 121.352,93.9957 127.617,110.578 135.356,93.6272 157.834,90.3106 143.831,81.098 145.674,65.6209 128.722,74.0965 "/>
   <path id="_141181968" class="fil0 str0" d="M114.531 60.489l-2.13071 16.722 -14.5287 8.35984 5.03622 1.16693 -4.45512 3.30472 20.798 3.69567 8.36575 16.8402 8.22283 -14.5075 20.5346 2.72126 -3.10039 -3.69449 2.51811 -0.777165 -9.10394 -9.52677 7.55433 -9.91654 -3.48661 0 2.90551 -4.66654 -22.6642 4.08307 -16.4657 -13.8047zm16.272 18.0827l17.4343 -3.30591 -4.40669 5.83228 1.16339 2.90551 -0.95315 2.04921 7.0063 7.43622 -16.7728 -1.62165 -6.74646 14.7366 -5.89252 -13.2094 -2.51811 -2.81457 -15.0614 -3.6248 10.4055 -5.57953 1.04528 -15.4996 15.2965 12.6957z"/>
  </g>
  <g id="_24658968">
   <polygon id="_141800768" class="fil3" points="49.6157,147.099 55.8803,161.471 38.9291,174.737 59.9339,177.317 66.1984,193.899 73.937,176.948 96.4157,173.631 82.4126,164.419 84.2551,148.942 67.3039,157.417 "/>
   <path id="_141552760" class="fil0 str0" d="M53.113 143.81l-2.13071 16.722 -14.5287 8.35984 5.03622 1.16693 -4.45512 3.30472 20.798 3.69567 8.36575 16.8402 8.22283 -14.5075 20.5346 2.72126 -3.10039 -3.69449 2.51811 -0.777165 -9.10394 -9.52677 7.55433 -9.91654 -3.48661 0 2.90551 -4.66654 -22.6642 4.08307 -16.4657 -13.8047zm16.272 18.0827l17.4343 -3.30591 -4.40669 5.83228 1.16339 2.90551 -0.95315 2.04921 7.0063 7.43622 -16.7728 -1.62165 -6.74646 14.7366 -5.89252 -13.2094 -2.51811 -2.81457 -15.0614 -3.6248 10.4055 -5.57953 1.04528 -15.4996 15.2965 12.6957z"/>
  </g>
  <g id="_24657168">
   <polygon id="_24647296" class="fil3" points="19.9736,279.72 26.2382,294.092 9.28701,307.358 30.2917,309.938 36.5563,326.52 44.2949,309.569 66.7736,306.253 52.7705,297.04 54.613,281.563 37.6618,290.039 "/>
   <path id="_140098720" class="fil0 str0" d="M23.4709 276.431l-2.13071 16.722 -14.5287 8.35984 5.03622 1.16693 -4.45512 3.30472 20.798 3.69567 8.36575 16.8402 8.22283 -14.5075 20.5346 2.72126 -3.10039 -3.69449 2.51811 -0.777165 -9.10394 -9.52677 7.55433 -9.91654 -3.48661 0 2.90551 -4.66654 -22.6642 4.08307 -16.4657 -13.8047zm16.272 18.0827l17.4343 -3.30591 -4.40669 5.83228 1.16339 2.90551 -0.95315 2.04921 7.0063 7.43622 -16.7728 -1.62165 -6.74646 14.7366 -5.89252 -13.2094 -2.51811 -2.81457 -15.0614 -3.6248 10.4055 -5.57953 1.04528 -15.4996 15.2965 12.6957z"/>
  </g>
  <g id="_140785832">
   <polygon id="_140092680" class="fil3" points="49.9594,409.743 56.224,424.115 39.2728,437.381 60.2776,439.961 66.5421,456.543 74.2807,439.592 96.7594,436.276 82.7563,427.063 84.5988,411.586 67.6476,420.061 "/>
   <path id="_140932032" class="fil0 str0" d="M53.4567 406.454l-2.13071 16.722 -14.5287 8.35984 5.03622 1.16693 -4.45512 3.30472 20.798 3.69567 8.36575 16.8402 8.22283 -14.5075 20.5346 2.72126 -3.10039 -3.69449 2.51811 -0.777165 -9.10394 -9.52677 7.55433 -9.91654 -3.48661 0 2.90551 -4.66654 -22.6642 4.08307 -16.4657 -13.8047zm16.272 18.0827l17.4343 -3.30591 -4.40669 5.83228 1.16339 2.90551 -0.95315 2.04921 7.0063 7.43622 -16.7728 -1.62165 -6.74646 14.7366 -5.89252 -13.2094 -2.51811 -2.81457 -15.0614 -3.6248 10.4055 -5.57953 1.04528 -15.4996 15.2965 12.6957z"/>
  </g>
  <g id="_141530520">
   <polygon id="_141026960" class="fil3" points="112.161,505.88 118.426,520.252 101.474,533.518 122.479,536.098 128.744,552.68 136.482,535.729 158.961,532.413 144.958,523.2 146.8,507.723 129.849,516.198 "/>
   <path id="_24647320" class="fil0 str0" d="M115.658 502.591l-2.13071 16.722 -14.5287 8.35984 5.03622 1.16693 -4.45512 3.30472 20.798 3.69567 8.36575 16.8402 8.22283 -14.5075 20.5346 2.72126 -3.10039 -3.69449 2.51811 -0.777165 -9.10394 -9.52677 7.55433 -9.91654 -3.48661 0 2.90551 -4.66654 -22.6642 4.08307 -16.4657 -13.8047zm16.272 18.0827l17.4343 -3.30591 -4.40669 5.83228 1.16339 2.90551 -0.95315 2.04921 7.0063 7.43622 -16.7728 -1.62165 -6.74646 14.7366 -5.89252 -13.2094 -2.51811 -2.81457 -15.0614 -3.6248 10.4055 -5.57953 1.04528 -15.4996 15.2965 12.6957z"/>
  </g>
  <g id="_141924408">
   <polygon id="_141516304" class="fil3" points="200.817,545.607 207.081,559.978 190.13,573.244 211.135,575.824 217.4,592.407 225.138,575.456 247.617,572.139 233.614,562.926 235.456,547.449 218.505,555.925 "/>
   <path id="_141933880" class="fil0 str0" d="M204.314 542.317l-2.13071 16.722 -14.5287 8.35984 5.03622 1.16693 -4.45512 3.30472 20.798 3.69567 8.36575 16.8402 8.22283 -14.5075 20.5346 2.72126 -3.10039 -3.69449 2.51811 -0.777165 -9.10394 -9.52677 7.55433 -9.91654 -3.48661 0 2.90551 -4.66654 -22.6642 4.08307 -16.4657 -13.8047zm16.272 18.0827l17.4343 -3.30591 -4.40669 5.83228 1.16339 2.90551 -0.95315 2.04921 7.0063 7.43622 -16.7728 -1.62165 -6.74646 14.7366 -5.89252 -13.2094 -2.51811 -2.81457 -15.0614 -3.6248 10.4055 -5.57953 1.04528 -15.4996 15.2965 12.6957z"/>
  </g>
  <g id="_140079520">
   <polygon id="_140734504" class="fil3" points="302.576,509.98 308.841,524.352 291.889,537.618 312.894,540.197 319.159,556.78 326.897,539.829 349.376,536.512 335.373,527.3 337.215,511.822 320.264,520.298 "/>
   <path id="_24666144" class="fil0 str0" d="M306.073 506.691l-2.13071 16.722 -14.5287 8.35984 5.03622 1.16693 -4.45512 3.30472 20.798 3.69567 8.36575 16.8402 8.22283 -14.5075 20.5346 2.72126 -3.10039 -3.69449 2.51811 -0.777165 -9.10394 -9.52677 7.55433 -9.91654 -3.48661 0 2.90551 -4.66654 -22.6642 4.08307 -16.4657 -13.8047zm16.272 18.0827l17.4343 -3.30591 -4.40669 5.83228 1.16339 2.90551 -0.95315 2.04921 7.0063 7.43622 -16.7728 -1.62165 -6.74646 14.7366 -5.89252 -13.2094 -2.51811 -2.81457 -15.0614 -3.6248 10.4055 -5.57953 1.04528 -15.4996 15.2965 12.6957z"/>
  </g>
  <g id="_140097768">
   <polygon id="_141516280" class="fil3" points="359.734,422.48 365.999,436.852 349.048,450.118 370.052,452.698 376.317,469.28 384.056,452.329 406.534,449.013 392.531,439.8 394.374,424.323 377.422,432.798 "/>
   <path id="_140964128" class="fil0 str0" d="M363.231 419.191l-2.13071 16.722 -14.5287 8.35984 5.03622 1.16693 -4.45512 3.30472 20.798 3.69567 8.36575 16.8402 8.22283 -14.5075 20.5346 2.72126 -3.10039 -3.69449 2.51811 -0.777165 -9.10394 -9.52677 7.55433 -9.91654 -3.48661 0 2.90551 -4.66654 -22.6642 4.08307 -16.4657 -13.8047zm16.272 18.0827l17.4343 -3.30591 -4.40669 5.83228 1.16339 2.90551 -0.95315 2.04921 7.0063 7.43622 -16.7728 -1.62165 -6.74646 14.7366 -5.89252 -13.2094 -2.51811 -2.81457 -15.0614 -3.6248 10.4055 -5.57953 1.04528 -15.4996 15.2965 12.6957z"/>
  </g>
  <g id="_140112760">
   <polygon id="_141928328" class="fil3" points="392.829,286.283 399.093,300.654 382.142,313.92 403.147,316.5 409.411,333.083 417.15,316.131 439.629,312.815 425.626,303.602 427.468,288.125 410.517,296.601 "/>
   <path id="_142113472" class="fil0 str0" d="M396.326 282.993l-2.13071 16.722 -14.5287 8.35984 5.03622 1.16693 -4.45512 3.30472 20.798 3.69567 8.36575 16.8402 8.22283 -14.5075 20.5346 2.72126 -3.10039 -3.69449 2.51811 -0.777165 -9.10394 -9.52677 7.55433 -9.91654 -3.48661 0 2.90551 -4.66654 -22.6642 4.08307 -16.4657 -13.8047zm16.272 18.0827l17.4343 -3.30591 -4.40669 5.83228 1.16339 2.90551 -0.95315 2.04921 7.0063 7.43622 -16.7728 -1.62165 -6.74646 14.7366 -5.89252 -13.2094 -2.51811 -2.81457 -15.0614 -3.6248 10.4055 -5.57953 1.04528 -15.4996 15.2965 12.6957z"/>
  </g>
  <g id="_140112144">
   <polygon id="_140985792" class="fil3" points="365.222,157.852 371.486,172.224 354.535,185.49 375.54,188.069 381.804,204.652 389.543,187.701 412.022,184.384 398.019,175.172 399.861,159.694 382.91,168.17 "/>
   <path id="_141915352" class="fil0 str0" d="M368.719 154.563l-2.13071 16.722 -14.5287 8.35984 5.03622 1.16693 -4.45512 3.30472 20.798 3.69567 8.36575 16.8402 8.22283 -14.5075 20.5346 2.72126 -3.10039 -3.69449 2.51811 -0.777165 -9.10394 -9.52677 7.55433 -9.91654 -3.48661 0 2.90551 -4.66654 -22.6642 4.08307 -16.4657 -13.8047zm16.272 18.0827l17.4343 -3.30591 -4.40669 5.83228 1.16339 2.90551 -0.95315 2.04921 7.0063 7.43622 -16.7728 -1.62165 -6.74646 14.7366 -5.89252 -13.2094 -2.51811 -2.81457 -15.0614 -3.6248 10.4055 -5.57953 1.04528 -15.4996 15.2965 12.6957z"/>
  </g>
  <g id="_141797832">
   <polygon id="_141023120" class="fil3" points="301.289,61.9547 307.553,76.3264 290.602,89.5925 311.607,92.172 317.871,108.755 325.61,91.8035 348.089,88.487 334.085,79.2744 335.928,63.7972 318.977,72.2728 "/>
   <path id="_141929840" class="fil0 str0" d="M304.786 58.6654l-2.13071 16.722 -14.5287 8.35984 5.03622 1.16693 -4.45512 3.30472 20.798 3.69567 8.36575 16.8402 8.22283 -14.5075 20.5346 2.72126 -3.10039 -3.69449 2.51811 -0.777165 -9.10394 -9.52677 7.55433 -9.91654 -3.48661 0 2.90551 -4.66654 -22.6642 4.08307 -16.4657 -13.8047zm16.272 18.0827l17.4343 -3.30591 -4.40669 5.83228 1.16339 2.90551 -0.95315 2.04921 7.0063 7.43622 -16.7728 -1.62165 -6.74646 14.7366 -5.89252 -13.2094 -2.51811 -2.81457 -15.0614 -3.6248 10.4055 -5.57953 1.04528 -15.4996 15.2965 12.6957z"/>
  </g>
  <g id="_24674808">
   <polygon id="_140093216" class="fil3" points="211.296,18.7736 217.56,33.1453 200.609,46.4114 221.614,48.9909 227.878,65.5736 235.617,48.6224 258.096,45.3059 244.093,36.0933 245.935,20.6161 228.984,29.0917 "/>
   <path id="_141800448" class="fil0 str0" d="M214.793 15.4843l-2.13071 16.722 -14.5287 8.35984 5.03622 1.16693 -4.45512 3.30472 20.798 3.69567 8.36575 16.8402 8.22283 -14.5075 20.5346 2.72126 -3.10039 -3.69449 2.51811 -0.777165 -9.10394 -9.52677 7.55433 -9.91654 -3.48661 0 2.90551 -4.66654 -22.6642 4.08307 -16.4657 -13.8047zm16.272 18.0827l17.4343 -3.30591 -4.40669 5.83228 1.16339 2.90551 -0.95315 2.04921 7.0063 7.43622 -16.7728 -1.62165 -6.74646 14.7366 -5.89252 -13.2094 -2.51811 -2.81457 -15.0614 -3.6248 10.4055 -5.57953 1.04528 -15.4996 15.2965 12.6957z"/>
  </g>
  <polygon class="fil0 str0" points="380.29,261.436 384.369,264.934 327.168,427.266 323.03,423.911 "/>
  <polygon class="fil0 str0" points="274.488,110.836 279.202,113.517 280.537,174.911 276.706,175.172 "/>
  <polygon class="fil0 str0" points="317.65,179.619 320.576,179.982 316.572,191.994 281.871,194.13 292.815,514.178 264.254,532.062 264.495,524.811 288.278,510.707 277.204,189.579 314.97,186.656 "/>
  <polygon class="fil0 str0" points="314.441,221.354 318.456,224.491 326.619,355.891 323.269,365.696 "/>
  <polygon class="fil0 str0" points="261.852,195.201 244.721,196.281 219.998,258.546 216.839,250.559 240.906,191.606 261.885,189.961 "/>
  <polygon class="fil0 str0" points="262.13,151.737 252.705,175.167 247.62,175.16 262.687,137.561 "/>
  <path class="fil0 str0" d="M229.211 175.306l-4.24724 -0.0248031 -5.37402 -59.1142c0,0 5.0126,0.63189 7.00512,0.96378 1.99252,0.33189 8.04213,2.47559 8.04213,2.47559l3.00472 -7.88504 4.55197 1.94409 -3.38976 8.74961c0,0 -4.94055,-0.970866 -7.26496,-1.45748 -2.32441,-0.486614 -7.65118,-1.16693 -7.65118,-1.16693l5.32323 55.5154z"/>
  <polygon class="fil0 str0" points="218.854,81.6898 224.081,81.8764 223.809,104.085 219.542,102.857 "/>
  <polygon class="fil0 str0" points="195.156,113.1 195.237,117.58 208.433,117.683 208.709,113.874 "/>
  <polygon class="fil0 str0" points="117.729,199.887 119.432,204.83 162.208,201.573 162.4,196.611 "/>
  <polygon class="fil0 str0" points="183.808,171.098 183.807,175.09 179.382,175.103 179.637,159.963 "/>
  <polygon class="fil0 str0" points="194.698,200.164 192.783,195.052 179.041,195.423 174.314,476.921 178.449,481.534 183.211,200.713 "/>
  <polygon class="fil0 str0" points="203.998,194.244 229.225,192.378 226.856,197.773 208.659,198.63 217.217,219.712 215.673,223.225 "/>
  <polygon class="fil0 str0" points="172.981,117.25 175.196,114.533 199.59,175.133 196.486,175.598 "/>
 </g>
</svg>
